<svg xmlns="http://www.w3.org/2000/svg" viewBox="0 0 960 960" fill="#888888">
  <path d="M543.1 172c20.37.13 20.76 8.66 49.68 41.26s80.44 77.17 97.6 114.2 32 154.23 27.6 178.05-81.67 62.87-237.98 62.87-233.58-39.05-237.98-62.87 10.44-141.02 27.6-178.05 68.68-81.6 97.6-114.2 29.31-41.13 49.68-41.26 15.16 28.2 63.1 28.2 42.73-28.33 63.1-28.2"/>
  <path d="M735.62 707.85c82.76-81.82 192.16-244.17 193.38-283.63s-58.99-4.89-116.78 3.18-93.2-9.47-87.58 30.11 22.05 32.08 16.39 70.4-116.1 75.45-261.03 75.45-255.37-37.13-261.03-75.45 10.77-30.82 16.39-70.4-29.79-22.04-87.58-30.11-118-42.64-116.78-3.18 110.62 201.81 193.38 283.63 142.88 83.1 255.62 83.1 172.86-1.28 255.62-83.1"/>
</svg>
